<svg width="35" height="35" viewBox="0 0 35 35" fill="none" xmlns="http://www.w3.org/2000/svg">
<g clip-path="url(#clip0_34_3437)">
<path d="M29.2443 33.1231V20.7736C29.2443 19.8125 28.4652 19.0334 27.5041 19.0334H7.49589C6.53483 19.0334 5.75574 19.8125 5.75574 20.7736V33.1231C5.75574 34.0841 6.53483 34.8632 7.49589 34.8632H27.5041C28.4652 34.8632 29.2443 34.0841 29.2443 33.1231Z" fill="url(#paint0_linear_34_3437)"/>
<path d="M20.1316 19.0334H27.5042C28.4652 19.0334 29.2443 19.8125 29.2443 20.7736V33.1231C29.2443 34.0841 28.4652 34.8632 27.5042 34.8632H20.1316V19.0334Z" fill="url(#paint1_linear_34_3437)"/>
<path d="M29.2443 20.7736C29.2443 19.8125 28.4652 19.0334 27.5041 19.0334H23.8441V25.3334L29.2443 30.7336V20.7736Z" fill="url(#paint2_linear_34_3437)"/>
<path d="M20.132 20.7004V33.196C20.132 34.1168 19.3855 34.8632 18.4647 34.8632H7.49573C6.53487 34.8632 5.75598 34.0843 5.75598 33.1234V20.7736C5.75598 19.8124 6.53521 19.0332 7.49641 19.0332H18.4647C19.3855 19.0332 20.132 19.7796 20.132 20.7004Z" fill="url(#paint3_linear_34_3437)"/>
<path d="M20.132 20.7004V33.196C20.132 34.1168 19.3855 34.8632 18.4647 34.8632H7.49573C6.53487 34.8632 5.75598 34.0843 5.75598 33.1234V20.7736C5.75598 19.8124 6.53521 19.0332 7.49641 19.0332H18.4647C19.3855 19.0332 20.132 19.7796 20.132 20.7004Z" fill="url(#paint4_linear_34_3437)"/>
<path d="M20.1319 20.7007V33.1961C20.1319 34.1169 19.3854 34.8634 18.4646 34.8634H13.6213V19.0334H18.4646C19.3854 19.0334 20.1319 19.7799 20.1319 20.7007Z" fill="url(#paint5_linear_34_3437)"/>
<path d="M5.75574 33.1232V26.3474H29.2443V33.1232C29.2443 34.0843 28.4652 34.8634 27.5041 34.8634H7.49589C6.53483 34.8634 5.75574 34.0843 5.75574 33.1232Z" fill="url(#paint6_linear_34_3437)"/>
<path d="M14.2028 34.9998H11.685C11.4992 34.9998 11.3486 34.8492 11.3486 34.6634V19.2265C11.3486 19.0407 11.4992 18.8901 11.685 18.8901H14.2028C14.3886 18.8901 14.5392 19.0407 14.5392 19.2265V34.6634C14.5392 34.8492 14.3886 34.9998 14.2028 34.9998Z" fill="url(#paint7_linear_34_3437)"/>
<path d="M14.2028 18.8901H11.685C11.4992 18.8901 11.3486 19.0407 11.3486 19.2265V25.5616H14.5392V19.2265C14.5392 19.0407 14.3886 18.8901 14.2028 18.8901Z" fill="url(#paint8_linear_34_3437)"/>
<path d="M11.3488 32.0977V34.6633C11.3488 34.8491 11.4994 34.9997 11.6852 34.9997H14.203C14.3888 34.9997 14.5394 34.8491 14.5394 34.6633V32.0977H11.3488Z" fill="url(#paint9_linear_34_3437)"/>
<path d="M8.85564 13.7861L9.89374 16.0124C10.4009 17.1 10.2385 18.3822 9.47634 19.3092C8.5016 20.4945 6.61687 20.2226 6.01694 18.81C5.53576 17.6771 5.84441 16.363 6.77963 15.5627L8.85564 13.7861Z" fill="url(#paint10_linear_34_3437)"/>
<path d="M8.85564 13.7861L9.89374 16.0124C10.4009 17.1 10.2385 18.3822 9.47634 19.3092C8.5016 20.4945 6.61687 20.2226 6.01694 18.81C5.53576 17.6771 5.84441 16.363 6.77963 15.5627L8.85564 13.7861Z" fill="url(#paint11_linear_34_3437)"/>
<path d="M9.37544 14.9009C9.33853 14.9163 9.30168 14.9319 9.26511 14.949C7.8204 15.6227 7.19533 17.34 7.86901 18.7847C8.07634 19.2293 8.38273 19.5959 8.74941 19.8714C9.01888 19.748 9.26839 19.5621 9.47634 19.3092C10.2386 18.3824 10.4009 17.1001 9.89374 16.0125L9.37544 14.9009Z" fill="url(#paint12_linear_34_3437)"/>
<path d="M5.88684 18.4291C5.92095 18.5577 5.96388 18.685 6.017 18.8101C6.61692 20.2226 8.50166 20.4946 9.47639 19.3093C10.1318 18.5123 10.3433 17.4526 10.0673 16.4797L5.88684 18.4291Z" fill="url(#paint13_linear_34_3437)"/>
<path d="M9.78173 15.7721L8.56453 13.1617C7.96987 11.8864 6.69579 11.0658 5.28868 11.0519C3.48932 11.034 2.31306 12.9319 3.12968 14.5354C3.78464 15.8215 5.19762 16.5347 6.62128 16.2978L9.78173 15.7721Z" fill="url(#paint14_linear_34_3437)"/>
<path d="M4.72004 13.1124C4.02859 13.4349 3.49422 13.9568 3.15222 14.5775C3.81647 15.8368 5.21339 16.5321 6.62132 16.2979L9.61833 15.7992C9.57322 15.4575 9.47622 15.1167 9.32282 14.7877C8.51433 13.0541 6.45364 12.304 4.72004 13.1124Z" fill="url(#paint15_linear_34_3437)"/>
<path d="M9.6182 15.7992C9.57308 15.4575 9.47608 15.1166 9.32268 14.7877C9.29541 14.7292 9.26642 14.672 9.23634 14.6157C8.47414 14.0029 7.40076 13.8368 6.45446 14.2781C5.66245 14.6474 5.13909 15.3584 4.97742 16.1537C5.4925 16.3358 6.05592 16.3918 6.62125 16.2978L9.6182 15.7992Z" fill="url(#paint16_linear_34_3437)"/>
<path d="M9.46252 13.5031L10.5006 15.7294C11.0078 16.817 12.0944 17.5169 13.2944 17.5288C14.829 17.544 15.8322 15.9254 15.1357 14.5579C14.5771 13.461 13.3721 12.8528 12.1579 13.0548L9.46252 13.5031Z" fill="url(#paint17_linear_34_3437)"/>
<path d="M9.46252 13.5031L10.5006 15.7294C11.0078 16.817 12.0944 17.5169 13.2944 17.5288C14.829 17.544 15.8322 15.9254 15.1357 14.5579C14.5771 13.461 13.3721 12.8528 12.1579 13.0548L9.46252 13.5031Z" fill="url(#paint18_linear_34_3437)"/>
<path d="M9.9823 14.6179C10.0178 14.5995 10.0535 14.5813 10.09 14.5643C11.5347 13.8906 13.2521 14.5157 13.9257 15.9604C14.1331 16.405 14.217 16.8754 14.1922 17.3333C13.9246 17.4604 13.6217 17.5321 13.2943 17.5289C12.0943 17.517 11.0077 16.8172 10.5005 15.7295L9.9823 14.6179Z" fill="url(#paint19_linear_34_3437)"/>
<path d="M14.9275 14.2131C15.004 14.3219 15.074 14.4367 15.1357 14.5577C15.8321 15.9253 14.8289 17.5439 13.2944 17.5286C12.2625 17.5184 11.3149 16.9992 10.7471 16.1625L14.9275 14.2131Z" fill="url(#paint20_linear_34_3437)"/>
<path d="M10.3885 15.4891L9.17129 12.8787C8.57663 11.6034 8.76694 10.0999 9.66074 9.0131C10.8037 7.62322 13.0136 7.94212 13.7171 9.5984C14.2813 10.9268 13.9194 12.4676 12.8228 13.406L10.3885 15.4891Z" fill="url(#paint21_linear_34_3437)"/>
<path d="M11.6049 9.90193C12.2963 9.57947 13.0397 9.50572 13.7349 9.64264C14.2726 10.9609 13.9074 12.4779 12.8229 13.4059L10.5145 15.3813C10.2817 15.127 10.0831 14.8337 9.92959 14.5047C9.12117 12.771 9.87121 10.7103 11.6049 9.90193Z" fill="url(#paint22_linear_34_3437)"/>
<path d="M10.5144 15.3813C10.2816 15.1271 10.083 14.8338 9.92949 14.5048C9.90222 14.4463 9.87699 14.3873 9.85327 14.3281C9.87371 13.3503 10.4365 12.4212 11.3828 11.98C12.1748 11.6106 13.0559 11.6668 13.7691 12.0542C13.5775 12.5657 13.2583 13.0334 12.8229 13.406L10.5144 15.3813Z" fill="url(#paint23_linear_34_3437)"/>
<path d="M10.9203 13.0701C10.5133 12.6092 9.80368 12.5735 9.34498 12.9828C9.23281 13.0829 9.10655 13.1671 8.96675 13.2323C8.82703 13.2974 8.68135 13.3401 8.53253 13.3617C7.92407 13.4499 7.49525 14.0166 7.58678 14.6245C7.63033 14.9138 7.71789 15.2089 7.85236 15.4972C7.98265 15.7765 8.1461 16.0263 8.33231 16.241C8.74205 16.7136 9.45901 16.7649 9.92577 16.3485C10.0379 16.2485 10.1641 16.1644 10.3037 16.0993C10.4435 16.0341 10.5891 15.9915 10.7379 15.9699C11.3464 15.8816 11.7752 15.315 11.6837 14.7071C11.6402 14.4178 11.5526 14.1227 11.4181 13.8344C11.2837 13.5461 11.1139 13.2894 10.9203 13.0701Z" fill="url(#paint24_linear_34_3437)"/>
<path d="M8.96258 15.4878C8.56753 14.6406 8.73467 13.6759 9.31012 13.0127C9.20683 13.0996 9.09226 13.1736 8.96675 13.2321C8.82703 13.2973 8.68135 13.3399 8.53253 13.3615C7.92407 13.4498 7.49525 14.0163 7.58678 14.6243C7.63033 14.9136 7.71789 15.2087 7.85236 15.497C7.98265 15.7764 8.1461 16.0262 8.33231 16.2409C8.70644 16.6725 9.33664 16.7524 9.79875 16.4461C9.44691 16.2198 9.15248 15.895 8.96258 15.4878Z" fill="url(#paint25_linear_34_3437)"/>
<path d="M7.85232 15.4972C7.98261 15.7766 8.14606 16.0264 8.33227 16.2411C8.74202 16.7137 9.45897 16.765 9.92573 16.3486C10.0378 16.2486 10.164 16.1645 10.3037 16.0993C10.4434 16.0342 10.5891 15.9915 10.7379 15.9699C11.3464 15.8817 11.7752 15.3151 11.6837 14.7071C11.6401 14.4178 11.5525 14.1227 11.4181 13.8345C11.3548 13.6988 11.2835 13.5705 11.2058 13.4495L7.69373 15.0871C7.73666 15.2245 7.78909 15.3616 7.85232 15.4972Z" fill="url(#paint26_linear_34_3437)"/>
<path d="M22.0784 13.5609L21.4513 12.2161C21.0451 11.3451 20.0097 10.9682 19.1388 11.3744L1.00515 19.8303C0.134112 20.2364 -0.242685 21.2718 0.163438 22.1429L0.790498 23.4876C1.19669 24.3587 2.23206 24.7355 3.10303 24.3293L21.2366 15.8735C22.1077 15.4673 22.4846 14.4319 22.0784 13.5609Z" fill="url(#paint27_linear_34_3437)"/>
<path d="M12.457 14.4902L19.1388 11.3744C20.0099 10.9682 21.0452 11.3451 21.4513 12.2161L22.0784 13.5609C22.4846 14.4319 22.1077 15.4673 21.2367 15.8734L14.5549 18.9892L12.457 14.4902Z" fill="url(#paint28_linear_34_3437)"/>
<path d="M12.8796 19.7704L17.5612 17.5874L15.4632 13.0884L10.7816 15.2714L12.8796 19.7704Z" fill="url(#paint29_linear_34_3437)"/>
<path d="M0.790459 23.4875L0.39917 22.6483L21.687 12.7217L22.0783 13.5609C22.4845 14.4319 22.1076 15.4673 21.2366 15.8734L3.10306 24.3292C2.23202 24.7354 1.19665 24.3586 0.790459 23.4875Z" fill="url(#paint30_linear_34_3437)"/>
<path d="M13.3762 19.7095L11.0943 20.7736C10.9259 20.8522 10.7258 20.7793 10.6473 20.6109L8.70288 16.4411C8.62433 16.2728 8.6972 16.0726 8.86557 15.9941L11.1475 14.93C11.3158 14.8515 11.516 14.9244 11.5945 15.0927L13.5389 19.2625C13.6174 19.4309 13.5446 19.6311 13.3762 19.7095Z" fill="url(#paint31_linear_34_3437)"/>
<path d="M9.56299 18.2856L10.6473 20.611C10.7258 20.7793 10.9259 20.8522 11.0943 20.7737L13.3762 19.7096C13.5446 19.631 13.6175 19.4309 13.5389 19.2626L12.4546 16.9373L9.56299 18.2856Z" fill="url(#paint32_linear_34_3437)"/>
<path d="M24.0679 4.79843C23.6207 3.91755 22.8821 3.20962 21.9787 2.80179C21.8787 2.7566 21.8787 2.61339 21.9787 2.5682C22.8821 2.16037 23.6206 1.45244 24.0679 0.571563C24.1156 0.477773 24.2492 0.477773 24.2967 0.571563C24.744 1.45244 25.4826 2.16037 26.3859 2.5682C26.486 2.61339 26.486 2.7566 26.3859 2.80179C25.4826 3.20962 24.7441 3.91755 24.2967 4.79843C24.2492 4.89215 24.1155 4.89215 24.0679 4.79843Z" fill="url(#paint33_linear_34_3437)"/>
<path d="M32.1573 24.1449C31.71 23.264 30.9715 22.5561 30.0681 22.1482C29.968 22.103 29.968 21.9598 30.0681 21.9146C30.9715 21.5068 31.71 20.7989 32.1573 19.918C32.2049 19.8242 32.3385 19.8242 32.3861 19.918C32.8334 20.7989 33.5719 21.5068 34.4753 21.9146C34.5754 21.9598 34.5754 22.103 34.4753 22.1482C33.5719 22.5561 32.8334 23.264 32.3861 24.1449C32.3385 24.2386 32.2049 24.2386 32.1573 24.1449Z" fill="url(#paint34_linear_34_3437)"/>
<path d="M24.7883 14.1893L23.4361 12.8371C23.2225 12.6235 23.2225 12.2771 23.4361 12.0635L25.2834 10.2162C26.0737 9.42592 26.5089 8.37517 26.5089 7.25749C26.5089 5.3368 27.2569 3.53102 28.615 2.17285L30.6276 0.160217C30.8413 -0.0534058 31.1876 -0.0534058 31.4013 0.160217L32.7535 1.51243C32.9671 1.72606 32.9671 2.07243 32.7535 2.28606L30.7408 4.29869C29.9505 5.089 29.5153 6.13975 29.5153 7.25742C29.5152 9.17819 28.7673 10.9839 27.4091 12.3421L25.5619 14.1893C25.3483 14.403 25.0019 14.403 24.7883 14.1893Z" fill="url(#paint35_linear_34_3437)"/>
<path d="M26.5089 7.25757C26.5089 8.37524 26.0737 9.426 25.2834 10.2163L23.4361 12.0636C23.2225 12.2772 23.2225 12.6236 23.4361 12.8372L24.7883 14.1894C25.0019 14.403 25.3483 14.403 25.5619 14.1894C26.1683 13.5831 26.5089 12.7607 26.5089 11.9032V7.25757Z" fill="url(#paint36_linear_34_3437)"/>
<path d="M26.5089 7.25757C26.5089 8.37524 26.0737 9.426 25.2834 10.2163L23.4361 12.0636C23.2225 12.2772 23.2225 12.6236 23.4361 12.8372L24.7883 14.1894C25.0019 14.403 25.3483 14.403 25.5619 14.1894C26.1683 13.5831 26.5089 12.7607 26.5089 11.9032V7.25757Z" fill="url(#paint37_linear_34_3437)"/>
<path d="M25.5619 14.1894C26.1682 13.5831 26.5089 12.7607 26.5089 11.9032V7.25757" fill="url(#paint38_linear_34_3437)"/>
<path d="M29.5154 7.25742C29.5153 6.13975 29.9506 5.089 30.7409 4.29869L32.7536 2.28606C32.9672 2.07243 32.9672 1.72606 32.7536 1.51243L31.4013 0.160217C31.1877 -0.0534058 30.8413 -0.0534058 30.6277 0.160217L30.2966 0.491282C29.7964 0.991467 29.5154 1.66987 29.5154 2.37725V7.25742Z" fill="url(#paint39_linear_34_3437)"/>
<path d="M19.8462 9.1269L18.7196 10.2535C18.5417 10.4314 18.2531 10.4314 18.0752 10.2535L16.5362 8.71449C15.8778 8.05612 15.0024 7.69347 14.0713 7.69347C12.4711 7.69347 10.9667 7.07038 9.83532 5.93889L8.1586 4.26218C7.98066 4.08424 7.98066 3.79562 8.1586 3.61768L9.28516 2.49112C9.4631 2.31318 9.75172 2.31318 9.92966 2.49112L11.6064 4.16784C12.2647 4.82621 13.1402 5.18885 14.0713 5.18879C15.6714 5.18879 17.1758 5.81195 18.3072 6.94337L19.8462 8.48234C20.0241 8.66042 20.0241 8.94896 19.8462 9.1269Z" fill="url(#paint40_linear_34_3437)"/>
<path d="M14.0712 7.69336C15.0023 7.69336 15.8777 8.05594 16.5361 8.71438L18.075 10.2533C18.253 10.4313 18.5415 10.4313 18.7195 10.2533L19.8461 9.12679C20.024 8.94885 20.024 8.66023 19.8461 8.48229C19.341 7.97719 18.6558 7.69336 17.9415 7.69336H14.0712Z" fill="url(#paint41_linear_34_3437)"/>
<path d="M14.0712 7.69336C15.0023 7.69336 15.8777 8.05594 16.5361 8.71438L18.075 10.2533C18.253 10.4313 18.5415 10.4313 18.7195 10.2533L19.8461 9.12679C20.024 8.94885 20.024 8.66023 19.8461 8.48229C19.341 7.97719 18.6558 7.69336 17.9415 7.69336H14.0712Z" fill="url(#paint42_linear_34_3437)"/>
<path d="M19.8462 8.48229C19.341 7.97719 18.6559 7.69336 17.9415 7.69336H14.0713" fill="url(#paint43_linear_34_3437)"/>
<path d="M14.0712 5.18879C13.14 5.18879 12.2646 4.82621 11.6063 4.16784L9.92953 2.49112C9.75159 2.31318 9.46305 2.31318 9.28504 2.49112L8.15848 3.61768C7.98054 3.79562 7.98054 4.08424 8.15848 4.26218L8.43431 4.53801C8.85103 4.95472 9.41622 5.18879 10.0055 5.18879H14.0712Z" fill="url(#paint44_linear_34_3437)"/>
<path d="M15.064 1.05964V0.41207C15.064 0.184502 14.8795 0 14.652 0H13.2155C12.988 0 12.8035 0.184502 12.8035 0.41207V0.977197C12.8035 2.93446 14.3902 4.52115 16.3474 4.52115H16.9125C17.1401 4.52115 17.3246 4.33665 17.3246 4.10908V2.67271C17.3246 2.44515 17.1401 2.26064 16.9125 2.26064H16.265C15.6018 2.26058 15.064 1.72293 15.064 1.05964Z" fill="url(#paint45_linear_34_3437)"/>
<path d="M16.3475 4.52133H16.9126C17.1402 4.52133 17.3247 4.33683 17.3247 4.10926V2.67282C17.3247 2.44525 17.1402 2.26075 16.9126 2.26075H16.265C15.6017 2.26075 15.0641 1.72311 15.0641 1.05981V3.23111C15.0641 3.93569 15.6293 4.51866 16.3339 4.52133H16.3475Z" fill="url(#paint46_linear_34_3437)"/>
<path d="M32.503 9.04367L33.0282 9.56888C33.2127 9.75345 33.512 9.75345 33.6966 9.56888L34.8615 8.40397C35.0461 8.2194 35.0461 7.92012 34.8615 7.73555L34.4032 7.2772C32.8158 5.68983 30.2422 5.68983 28.6549 7.2772L28.1965 7.73555C28.012 7.92012 28.012 8.2194 28.1965 8.40397L29.3614 9.56888C29.546 9.75345 29.8453 9.75345 30.0299 9.56888L30.5551 9.04367C31.093 8.50582 31.965 8.50582 32.503 9.04367Z" fill="url(#paint47_linear_34_3437)"/>
<path d="M28.6549 7.27726L28.1965 7.73561C28.012 7.92018 28.012 8.21946 28.1965 8.40403L29.3614 9.56894C29.546 9.75351 29.8453 9.75351 30.0299 9.56894L30.5551 9.04374C31.093 8.50582 31.9651 8.50582 32.503 9.04374L30.742 7.2828C30.1706 6.71138 29.2395 6.69696 28.6659 7.26625C28.6622 7.26995 28.6586 7.27357 28.6549 7.27726Z" fill="url(#paint48_linear_34_3437)"/>
<path d="M23.0745 22.4964L22.4428 23.1281C22.2207 23.3501 22.2207 23.7101 22.4428 23.9321L23.8441 25.3334C24.0661 25.5555 24.4261 25.5555 24.6481 25.3334L25.1994 24.7821C27.1088 22.8727 27.1088 19.7769 25.1994 17.8675L24.6481 17.3162C24.4261 17.0942 24.0661 17.0942 23.8441 17.3162L22.4428 18.7175C22.2207 18.9395 22.2207 19.2995 22.4428 19.5215L23.0745 20.1532C23.7215 20.8003 23.7215 21.8494 23.0745 22.4964Z" fill="url(#paint49_linear_34_3437)"/>
<path d="M25.1994 17.8675L24.6481 17.3162C24.4261 17.0942 24.0661 17.0942 23.8441 17.3162L22.4428 18.7175C22.2207 18.9395 22.2207 19.2995 22.4428 19.5215L23.0745 20.1532C23.7215 20.8003 23.7215 21.8494 23.0745 22.4964L25.1927 20.3781C25.8801 19.6908 25.8974 18.5707 25.2126 17.8808C25.2082 17.8763 25.2038 17.8719 25.1994 17.8675Z" fill="url(#paint50_linear_34_3437)"/>
<path d="M33.261 12.4379C33.3645 12.9047 33.0799 13.3731 32.6157 13.4879C31.2435 13.8276 29.913 14.3446 28.6284 15.0373C27.3218 15.742 26.1383 16.3884 25.2579 16.8712C24.7972 17.1241 24.3143 16.5694 24.6313 16.1499C25.2615 15.3142 26.2485 14.3001 27.7076 13.5054C28.8894 12.8613 30.3916 12.2104 32.1812 11.7693C32.6652 11.65 33.1532 11.9512 33.261 12.4379Z" fill="url(#paint51_linear_34_3437)"/>
<path d="M18.5431 1.51279C18.1647 1.8051 18.0833 2.34705 18.3662 2.73253C19.2025 3.87222 19.8933 5.12135 20.4361 6.4761C20.9882 7.85408 21.4832 9.10855 21.8501 10.0432C22.042 10.5325 22.7681 10.4157 22.7933 9.89051C22.8445 8.84509 22.7359 7.43415 22.1244 5.88937C21.6292 4.63777 20.8924 3.17577 19.8005 1.69087C19.5052 1.28933 18.9376 1.20812 18.5431 1.51279Z" fill="url(#paint52_linear_34_3437)"/>
</g>
<defs>
<linearGradient id="paint0_linear_34_3437" x1="13.7446" y1="19.1836" x2="20.9227" y2="34.0248" gradientUnits="userSpaceOnUse">
<stop stop-color="#C8EFFE"/>
<stop offset="1" stop-color="#62DBFB"/>
</linearGradient>
<linearGradient id="paint1_linear_34_3437" x1="24.1996" y1="26.9754" x2="30.7783" y2="27.4871" gradientUnits="userSpaceOnUse">
<stop stop-color="#07B2CD" stop-opacity="0"/>
<stop offset="0.4553" stop-color="#05A5CE" stop-opacity="0.455"/>
<stop offset="1" stop-color="#0290CF"/>
</linearGradient>
<linearGradient id="paint2_linear_34_3437" x1="29.7129" y1="25.39" x2="23.9301" y2="22.856" gradientUnits="userSpaceOnUse">
<stop stop-color="#07B2CD" stop-opacity="0"/>
<stop offset="0.4553" stop-color="#05A5CE" stop-opacity="0.455"/>
<stop offset="1" stop-color="#0290CF"/>
</linearGradient>
<linearGradient id="paint3_linear_34_3437" x1="10.4944" y1="24.8268" x2="22.3361" y2="34.9873" gradientUnits="userSpaceOnUse">
<stop stop-color="#07B2CD" stop-opacity="0"/>
<stop offset="0.4553" stop-color="#05A5CE" stop-opacity="0.455"/>
<stop offset="1" stop-color="#0290CF"/>
</linearGradient>
<linearGradient id="paint4_linear_34_3437" x1="11.4336" y1="23.4298" x2="10.0203" y2="20.1648" gradientUnits="userSpaceOnUse">
<stop stop-color="#07B2CD" stop-opacity="0"/>
<stop offset="0.4553" stop-color="#05A5CE" stop-opacity="0.455"/>
<stop offset="1" stop-color="#0290CF"/>
</linearGradient>
<linearGradient id="paint5_linear_34_3437" x1="16.2852" y1="26.9484" x2="14.2581" y2="26.9484" gradientUnits="userSpaceOnUse">
<stop stop-color="#07B2CD" stop-opacity="0"/>
<stop offset="0.4553" stop-color="#05A5CE" stop-opacity="0.455"/>
<stop offset="1" stop-color="#0290CF"/>
</linearGradient>
<linearGradient id="paint6_linear_34_3437" x1="17.5" y1="30.4084" x2="17.5" y2="34.7434" gradientUnits="userSpaceOnUse">
<stop stop-color="#07B2CD" stop-opacity="0"/>
<stop offset="0.4553" stop-color="#05A5CE" stop-opacity="0.455"/>
<stop offset="1" stop-color="#0290CF"/>
</linearGradient>
<linearGradient id="paint7_linear_34_3437" x1="11.859" y1="26.7867" x2="14.9778" y2="27.2415" gradientUnits="userSpaceOnUse">
<stop stop-color="#FDB4BA"/>
<stop offset="1" stop-color="#FE5694"/>
</linearGradient>
<linearGradient id="paint8_linear_34_3437" x1="13.6597" y1="24.023" x2="11.8567" y2="19.8321" gradientUnits="userSpaceOnUse">
<stop stop-color="#FD3581" stop-opacity="0"/>
<stop offset="0.2815" stop-color="#FA317D" stop-opacity="0.282"/>
<stop offset="0.5604" stop-color="#F02571" stop-opacity="0.56"/>
<stop offset="0.8375" stop-color="#DF115E" stop-opacity="0.838"/>
<stop offset="1" stop-color="#D2024E"/>
</linearGradient>
<linearGradient id="paint9_linear_34_3437" x1="12.944" y1="33.852" x2="12.944" y2="34.8117" gradientUnits="userSpaceOnUse">
<stop stop-color="#FD3581" stop-opacity="0"/>
<stop offset="0.2815" stop-color="#FA317D" stop-opacity="0.282"/>
<stop offset="0.5604" stop-color="#F02571" stop-opacity="0.56"/>
<stop offset="0.8375" stop-color="#DF115E" stop-opacity="0.838"/>
<stop offset="1" stop-color="#D2024E"/>
</linearGradient>
<linearGradient id="paint10_linear_34_3437" x1="6.35901" y1="16.2626" x2="9.28147" y2="17.2915" gradientUnits="userSpaceOnUse">
<stop stop-color="#FDB4BA"/>
<stop offset="1" stop-color="#FE5694"/>
</linearGradient>
<linearGradient id="paint11_linear_34_3437" x1="7.88067" y1="18.4026" x2="8.16901" y2="16.1433" gradientUnits="userSpaceOnUse">
<stop stop-color="#FD3581" stop-opacity="0"/>
<stop offset="0.2815" stop-color="#FA317D" stop-opacity="0.282"/>
<stop offset="0.5604" stop-color="#F02571" stop-opacity="0.56"/>
<stop offset="0.8375" stop-color="#DF115E" stop-opacity="0.838"/>
<stop offset="1" stop-color="#D2024E"/>
</linearGradient>
<linearGradient id="paint12_linear_34_3437" x1="9.64479" y1="18.2989" x2="7.82228" y2="15.7553" gradientUnits="userSpaceOnUse">
<stop stop-color="#FD3581" stop-opacity="0"/>
<stop offset="0.2815" stop-color="#FA317D" stop-opacity="0.282"/>
<stop offset="0.5604" stop-color="#F02571" stop-opacity="0.56"/>
<stop offset="0.8375" stop-color="#DF115E" stop-opacity="0.838"/>
<stop offset="1" stop-color="#D2024E"/>
</linearGradient>
<linearGradient id="paint13_linear_34_3437" x1="8.21394" y1="17.9972" x2="9.08535" y2="19.8637" gradientUnits="userSpaceOnUse">
<stop stop-color="#FD3581" stop-opacity="0"/>
<stop offset="0.2815" stop-color="#FA317D" stop-opacity="0.282"/>
<stop offset="0.5604" stop-color="#F02571" stop-opacity="0.56"/>
<stop offset="0.8375" stop-color="#DF115E" stop-opacity="0.838"/>
<stop offset="1" stop-color="#D2024E"/>
</linearGradient>
<linearGradient id="paint14_linear_34_3437" x1="4.45441" y1="13.3368" x2="7.89285" y2="14.3201" gradientUnits="userSpaceOnUse">
<stop stop-color="#FDB4BA"/>
<stop offset="1" stop-color="#FE5694"/>
</linearGradient>
<linearGradient id="paint15_linear_34_3437" x1="7.05865" y1="14.4717" x2="8.71873" y2="13.1105" gradientUnits="userSpaceOnUse">
<stop stop-color="#FD3581" stop-opacity="0"/>
<stop offset="0.2815" stop-color="#FA317D" stop-opacity="0.282"/>
<stop offset="0.5604" stop-color="#F02571" stop-opacity="0.56"/>
<stop offset="0.8375" stop-color="#DF115E" stop-opacity="0.838"/>
<stop offset="1" stop-color="#D2024E"/>
</linearGradient>
<linearGradient id="paint16_linear_34_3437" x1="7.29454" y1="15.6829" x2="8.61906" y2="14.2831" gradientUnits="userSpaceOnUse">
<stop stop-color="#FD3581" stop-opacity="0"/>
<stop offset="0.2815" stop-color="#FA317D" stop-opacity="0.282"/>
<stop offset="0.5604" stop-color="#F02571" stop-opacity="0.56"/>
<stop offset="0.8375" stop-color="#DF115E" stop-opacity="0.838"/>
<stop offset="1" stop-color="#D2024E"/>
</linearGradient>
<linearGradient id="paint17_linear_34_3437" x1="13.0714" y1="13.295" x2="11.9838" y2="16.1962" gradientUnits="userSpaceOnUse">
<stop stop-color="#FDB4BA"/>
<stop offset="1" stop-color="#FE5694"/>
</linearGradient>
<linearGradient id="paint18_linear_34_3437" x1="13.7351" y1="15.8356" x2="11.8178" y2="14.6061" gradientUnits="userSpaceOnUse">
<stop stop-color="#FD3581" stop-opacity="0"/>
<stop offset="0.2815" stop-color="#FA317D" stop-opacity="0.282"/>
<stop offset="0.5604" stop-color="#F02571" stop-opacity="0.56"/>
<stop offset="0.8375" stop-color="#DF115E" stop-opacity="0.838"/>
<stop offset="1" stop-color="#D2024E"/>
</linearGradient>
<linearGradient id="paint19_linear_34_3437" x1="12.5229" y1="17.1216" x2="11.743" y2="14.0912" gradientUnits="userSpaceOnUse">
<stop stop-color="#FD3581" stop-opacity="0"/>
<stop offset="0.2815" stop-color="#FA317D" stop-opacity="0.282"/>
<stop offset="0.5604" stop-color="#F02571" stop-opacity="0.56"/>
<stop offset="0.8375" stop-color="#DF115E" stop-opacity="0.838"/>
<stop offset="1" stop-color="#D2024E"/>
</linearGradient>
<linearGradient id="paint20_linear_34_3437" x1="13.2102" y1="15.8307" x2="14.0816" y2="17.6972" gradientUnits="userSpaceOnUse">
<stop stop-color="#FD3581" stop-opacity="0"/>
<stop offset="0.2815" stop-color="#FA317D" stop-opacity="0.282"/>
<stop offset="0.5604" stop-color="#F02571" stop-opacity="0.56"/>
<stop offset="0.8375" stop-color="#DF115E" stop-opacity="0.838"/>
<stop offset="1" stop-color="#D2024E"/>
</linearGradient>
<linearGradient id="paint21_linear_34_3437" x1="12.0512" y1="9.95624" x2="10.5973" y2="13.2237" gradientUnits="userSpaceOnUse">
<stop stop-color="#FDB4BA"/>
<stop offset="1" stop-color="#FE5694"/>
</linearGradient>
<linearGradient id="paint22_linear_34_3437" x1="11.2493" y1="12.6814" x2="9.13984" y2="13.0802" gradientUnits="userSpaceOnUse">
<stop stop-color="#FD3581" stop-opacity="0"/>
<stop offset="0.2815" stop-color="#FA317D" stop-opacity="0.282"/>
<stop offset="0.5604" stop-color="#F02571" stop-opacity="0.56"/>
<stop offset="0.8375" stop-color="#DF115E" stop-opacity="0.838"/>
<stop offset="1" stop-color="#D2024E"/>
</linearGradient>
<linearGradient id="paint23_linear_34_3437" x1="12.0263" y1="13.6402" x2="10.1027" y2="13.7568" gradientUnits="userSpaceOnUse">
<stop stop-color="#FD3581" stop-opacity="0"/>
<stop offset="0.2815" stop-color="#FA317D" stop-opacity="0.282"/>
<stop offset="0.5604" stop-color="#F02571" stop-opacity="0.56"/>
<stop offset="0.8375" stop-color="#DF115E" stop-opacity="0.838"/>
<stop offset="1" stop-color="#D2024E"/>
</linearGradient>
<linearGradient id="paint24_linear_34_3437" x1="8.6288" y1="14.3681" x2="10.4948" y2="14.8463" gradientUnits="userSpaceOnUse">
<stop stop-color="#FDB4BA"/>
<stop offset="1" stop-color="#FE5694"/>
</linearGradient>
<linearGradient id="paint25_linear_34_3437" x1="8.87604" y1="14.3777" x2="9.23067" y2="13.1267" gradientUnits="userSpaceOnUse">
<stop stop-color="#FD3581" stop-opacity="0"/>
<stop offset="0.2815" stop-color="#FA317D" stop-opacity="0.282"/>
<stop offset="0.5604" stop-color="#F02571" stop-opacity="0.56"/>
<stop offset="0.8375" stop-color="#DF115E" stop-opacity="0.838"/>
<stop offset="1" stop-color="#D2024E"/>
</linearGradient>
<linearGradient id="paint26_linear_34_3437" x1="9.74832" y1="15.0173" x2="10.3146" y2="16.2302" gradientUnits="userSpaceOnUse">
<stop stop-color="#FD3581" stop-opacity="0"/>
<stop offset="0.2815" stop-color="#FA317D" stop-opacity="0.282"/>
<stop offset="0.5604" stop-color="#F02571" stop-opacity="0.56"/>
<stop offset="0.8375" stop-color="#DF115E" stop-opacity="0.838"/>
<stop offset="1" stop-color="#D2024E"/>
</linearGradient>
<linearGradient id="paint27_linear_34_3437" x1="7.26388" y1="14.6837" x2="14.6817" y2="20.7253" gradientUnits="userSpaceOnUse">
<stop stop-color="#C8EFFE"/>
<stop offset="1" stop-color="#62DBFB"/>
</linearGradient>
<linearGradient id="paint28_linear_34_3437" x1="17.2388" y1="15.0207" x2="22.9045" y2="12.8934" gradientUnits="userSpaceOnUse">
<stop stop-color="#07B2CD" stop-opacity="0"/>
<stop offset="0.4553" stop-color="#05A5CE" stop-opacity="0.455"/>
<stop offset="1" stop-color="#0290CF"/>
</linearGradient>
<linearGradient id="paint29_linear_34_3437" x1="14.513" y1="16.2606" x2="11.9986" y2="17.4346" gradientUnits="userSpaceOnUse">
<stop stop-color="#07B2CD" stop-opacity="0"/>
<stop offset="0.4553" stop-color="#05A5CE" stop-opacity="0.455"/>
<stop offset="1" stop-color="#0290CF"/>
</linearGradient>
<linearGradient id="paint30_linear_34_3437" x1="11.5849" y1="18.8275" x2="12.159" y2="20.057" gradientUnits="userSpaceOnUse">
<stop stop-color="#07B2CD" stop-opacity="0"/>
<stop offset="0.4553" stop-color="#05A5CE" stop-opacity="0.455"/>
<stop offset="1" stop-color="#0290CF"/>
</linearGradient>
<linearGradient id="paint31_linear_34_3437" x1="9.50035" y1="17.4084" x2="12.7973" y2="18.289" gradientUnits="userSpaceOnUse">
<stop stop-color="#FDB4BA"/>
<stop offset="1" stop-color="#FE5694"/>
</linearGradient>
<linearGradient id="paint32_linear_34_3437" x1="11.7549" y1="19.1915" x2="12.1608" y2="20.0609" gradientUnits="userSpaceOnUse">
<stop stop-color="#FD3581" stop-opacity="0"/>
<stop offset="0.2815" stop-color="#FA317D" stop-opacity="0.282"/>
<stop offset="0.5604" stop-color="#F02571" stop-opacity="0.56"/>
<stop offset="0.8375" stop-color="#DF115E" stop-opacity="0.838"/>
<stop offset="1" stop-color="#D2024E"/>
</linearGradient>
<linearGradient id="paint33_linear_34_3437" x1="23.3539" y1="1.85658" x2="25.8564" y2="4.35901" gradientUnits="userSpaceOnUse">
<stop stop-color="#8BC727"/>
<stop offset="0.1318" stop-color="#83C528"/>
<stop offset="0.343" stop-color="#6BBD2B"/>
<stop offset="0.6071" stop-color="#45B131"/>
<stop offset="0.9112" stop-color="#11A038"/>
<stop offset="1" stop-color="#009B3A"/>
</linearGradient>
<linearGradient id="paint34_linear_34_3437" x1="31.4433" y1="21.203" x2="33.9458" y2="23.7054" gradientUnits="userSpaceOnUse">
<stop stop-color="#FD4755"/>
<stop offset="1" stop-color="#A72B2B"/>
</linearGradient>
<linearGradient id="paint35_linear_34_3437" x1="25.8466" y1="4.92517" x2="30.3276" y2="9.40624" gradientUnits="userSpaceOnUse">
<stop stop-color="#FDB4BA"/>
<stop offset="1" stop-color="#FE5694"/>
</linearGradient>
<linearGradient id="paint36_linear_34_3437" x1="23.746" y1="10.7679" x2="26.6846" y2="10.8046" gradientUnits="userSpaceOnUse">
<stop stop-color="#FD3581" stop-opacity="0"/>
<stop offset="0.2815" stop-color="#FA317D" stop-opacity="0.282"/>
<stop offset="0.5604" stop-color="#F02571" stop-opacity="0.56"/>
<stop offset="0.8375" stop-color="#DF115E" stop-opacity="0.838"/>
<stop offset="1" stop-color="#D2024E"/>
</linearGradient>
<linearGradient id="paint37_linear_34_3437" x1="24.2882" y1="12.4537" x2="23.626" y2="13.1159" gradientUnits="userSpaceOnUse">
<stop stop-color="#FD3581" stop-opacity="0"/>
<stop offset="0.2815" stop-color="#FA317D" stop-opacity="0.282"/>
<stop offset="0.5604" stop-color="#F02571" stop-opacity="0.56"/>
<stop offset="0.8375" stop-color="#DF115E" stop-opacity="0.838"/>
<stop offset="1" stop-color="#D2024E"/>
</linearGradient>
<linearGradient id="paint38_linear_34_3437" x1="24.6187" y1="12.1231" x2="23.7707" y2="12.9711" gradientUnits="userSpaceOnUse">
<stop stop-color="#FD3581" stop-opacity="0"/>
<stop offset="0.2815" stop-color="#FA317D" stop-opacity="0.282"/>
<stop offset="0.5604" stop-color="#F02571" stop-opacity="0.56"/>
<stop offset="0.8375" stop-color="#DF115E" stop-opacity="0.838"/>
<stop offset="1" stop-color="#D2024E"/>
</linearGradient>
<linearGradient id="paint39_linear_34_3437" x1="32.4469" y1="3.05315" x2="28.7001" y2="4.0082" gradientUnits="userSpaceOnUse">
<stop stop-color="#FD3581" stop-opacity="0"/>
<stop offset="0.2815" stop-color="#FA317D" stop-opacity="0.282"/>
<stop offset="0.5604" stop-color="#F02571" stop-opacity="0.56"/>
<stop offset="0.8375" stop-color="#DF115E" stop-opacity="0.838"/>
<stop offset="1" stop-color="#D2024E"/>
</linearGradient>
<linearGradient id="paint40_linear_34_3437" x1="12.1353" y1="8.23994" x2="15.8685" y2="4.50678" gradientUnits="userSpaceOnUse">
<stop stop-color="#8BC727"/>
<stop offset="0.1318" stop-color="#83C528"/>
<stop offset="0.343" stop-color="#6BBD2B"/>
<stop offset="0.6071" stop-color="#45B131"/>
<stop offset="0.9112" stop-color="#11A038"/>
<stop offset="1" stop-color="#009B3A"/>
</linearGradient>
<linearGradient id="paint41_linear_34_3437" x1="17.0027" y1="9.98981" x2="17.0333" y2="7.54165" gradientUnits="userSpaceOnUse">
<stop stop-color="#026841" stop-opacity="0"/>
<stop offset="0.2376" stop-color="#026441" stop-opacity="0.238"/>
<stop offset="0.4745" stop-color="#015840" stop-opacity="0.475"/>
<stop offset="0.7111" stop-color="#01443F" stop-opacity="0.711"/>
<stop offset="0.9463" stop-color="#00283D" stop-opacity="0.946"/>
<stop offset="1" stop-color="#00213D"/>
</linearGradient>
<linearGradient id="paint42_linear_34_3437" x1="18.4071" y1="9.53807" x2="18.9588" y2="10.0898" gradientUnits="userSpaceOnUse">
<stop stop-color="#026841" stop-opacity="0"/>
<stop offset="0.2376" stop-color="#026441" stop-opacity="0.238"/>
<stop offset="0.4745" stop-color="#015840" stop-opacity="0.475"/>
<stop offset="0.7111" stop-color="#01443F" stop-opacity="0.711"/>
<stop offset="0.9463" stop-color="#00283D" stop-opacity="0.946"/>
<stop offset="1" stop-color="#00213D"/>
</linearGradient>
<linearGradient id="paint43_linear_34_3437" x1="18.1317" y1="9.26263" x2="18.8382" y2="9.96917" gradientUnits="userSpaceOnUse">
<stop stop-color="#026841" stop-opacity="0"/>
<stop offset="0.2376" stop-color="#026441" stop-opacity="0.238"/>
<stop offset="0.4745" stop-color="#015840" stop-opacity="0.475"/>
<stop offset="0.7111" stop-color="#01443F" stop-opacity="0.711"/>
<stop offset="0.9463" stop-color="#00283D" stop-opacity="0.946"/>
<stop offset="1" stop-color="#00213D"/>
</linearGradient>
<linearGradient id="paint44_linear_34_3437" x1="10.5756" y1="2.74116" x2="11.3713" y2="5.86256" gradientUnits="userSpaceOnUse">
<stop stop-color="#026841" stop-opacity="0"/>
<stop offset="0.2376" stop-color="#026441" stop-opacity="0.238"/>
<stop offset="0.4745" stop-color="#015840" stop-opacity="0.475"/>
<stop offset="0.7111" stop-color="#01443F" stop-opacity="0.711"/>
<stop offset="0.9463" stop-color="#00283D" stop-opacity="0.946"/>
<stop offset="1" stop-color="#00213D"/>
</linearGradient>
<linearGradient id="paint45_linear_34_3437" x1="15.56" y1="1.34812" x2="14.3826" y2="3.51456" gradientUnits="userSpaceOnUse">
<stop stop-color="#C8EFFE"/>
<stop offset="1" stop-color="#62DBFB"/>
</linearGradient>
<linearGradient id="paint46_linear_34_3437" x1="17.1661" y1="2.35639" x2="14.6935" y2="3.29831" gradientUnits="userSpaceOnUse">
<stop stop-color="#07B2CD" stop-opacity="0"/>
<stop offset="0.4553" stop-color="#05A5CE" stop-opacity="0.455"/>
<stop offset="1" stop-color="#0290CF"/>
</linearGradient>
<linearGradient id="paint47_linear_34_3437" x1="31.5291" y1="6.59108" x2="31.5291" y2="9.30535" gradientUnits="userSpaceOnUse">
<stop stop-color="#C8EFFE"/>
<stop offset="1" stop-color="#62DBFB"/>
</linearGradient>
<linearGradient id="paint48_linear_34_3437" x1="29.7521" y1="9.67102" x2="30.9932" y2="6.90229" gradientUnits="userSpaceOnUse">
<stop stop-color="#07B2CD" stop-opacity="0"/>
<stop offset="0.4553" stop-color="#05A5CE" stop-opacity="0.455"/>
<stop offset="1" stop-color="#0290CF"/>
</linearGradient>
<linearGradient id="paint49_linear_34_3437" x1="26.0248" y1="21.3248" x2="22.7598" y2="21.3248" gradientUnits="userSpaceOnUse">
<stop stop-color="#FDB4BA"/>
<stop offset="1" stop-color="#FE5694"/>
</linearGradient>
<linearGradient id="paint50_linear_34_3437" x1="22.3113" y1="19.1708" x2="25.6417" y2="20.6638" gradientUnits="userSpaceOnUse">
<stop stop-color="#FD3581" stop-opacity="0"/>
<stop offset="0.2815" stop-color="#FA317D" stop-opacity="0.282"/>
<stop offset="0.5604" stop-color="#F02571" stop-opacity="0.56"/>
<stop offset="0.8375" stop-color="#DF115E" stop-opacity="0.838"/>
<stop offset="1" stop-color="#D2024E"/>
</linearGradient>
<linearGradient id="paint51_linear_34_3437" x1="28.3785" y1="12.9769" x2="29.0364" y2="14.8774" gradientUnits="userSpaceOnUse">
<stop stop-color="#FEF0AE"/>
<stop offset="1" stop-color="#FAC600"/>
</linearGradient>
<linearGradient id="paint52_linear_34_3437" x1="21.947" y1="5.0475" x2="20.2235" y2="6.08539" gradientUnits="userSpaceOnUse">
<stop stop-color="#FEF0AE"/>
<stop offset="1" stop-color="#FAC600"/>
</linearGradient>
<clipPath id="clip0_34_3437">
<rect width="35" height="35" fill="white"/>
</clipPath>
</defs>
</svg>
