<svg width="40" height="40" viewBox="0 0 40 40" fill="none" xmlns="http://www.w3.org/2000/svg">
<g clip-path="url(#clip0_34_3294)">
<path d="M33.5982 15.952L33.9265 14.2128C34.261 14.0924 34.5897 13.9407 34.9085 13.7562C35.2967 13.5316 35.6502 13.2698 35.9678 12.9784L37.5586 13.5413C37.8575 13.6471 38.1896 13.5239 38.3489 13.2482L39.2996 11.6027C39.4589 11.327 39.4001 10.977 39.1597 10.7699L37.8228 9.61812C37.9671 8.83641 37.9589 8.0243 37.7846 7.22992L39.0689 6.12789C39.3103 5.92078 39.3707 5.57078 39.2128 5.29516L38.2704 3.64984C38.1125 3.37422 37.781 3.25109 37.4817 3.35695L35.818 3.94508C35.2024 3.41953 34.4927 3.03078 33.7367 2.79219L33.4304 1.12555C33.3729 0.812656 33.1014 0.585859 32.7842 0.585938L30.891 0.586172C30.5739 0.58625 30.3011 0.813047 30.2421 1.12602L29.9138 2.86523C29.5792 2.98563 29.2506 3.13734 28.9317 3.32188C28.5436 3.54648 28.1901 3.80828 27.8724 4.09961L26.2817 3.53672C25.9828 3.43094 25.6507 3.55414 25.4915 3.82984L24.5408 5.47539C24.3815 5.75109 24.4403 6.10102 24.6806 6.30813L26.0175 7.45992C25.8732 8.24172 25.8815 9.05375 26.0558 9.84813L24.7715 10.9502C24.5301 11.1573 24.4696 11.5073 24.6275 11.7829L25.5699 13.4282C25.7278 13.7038 26.0593 13.827 26.3587 13.7211L28.0224 13.133C28.6379 13.6585 29.3478 14.0473 30.1037 14.2859L30.4099 15.9525C30.4674 16.2654 30.739 16.4922 31.0562 16.4921L32.9493 16.4919C33.2665 16.4918 33.5392 16.2649 33.5982 15.952ZM29.4933 9.94352C28.7239 8.60039 29.1868 6.88266 30.5271 6.10695C31.8674 5.33125 33.5777 5.79125 34.3471 7.13438C35.1164 8.4775 34.6535 10.1952 33.3132 10.9709C31.9729 11.7466 30.2626 11.2866 29.4933 9.94352Z" fill="#86DB7B"/>
<path d="M17.6292 34.9223L17.6983 11.1071C19.8249 10.713 21.3423 9.5393 21.3494 7.09352C21.3562 4.75891 19.985 1.92227 18.0148 0.608281L18.0007 5.47828C17.999 6.04273 17.5484 6.49805 16.9942 6.49523L14.523 6.48289C13.9688 6.48016 13.5208 6.02031 13.5225 5.45586L13.5365 0.585938C11.5588 1.88016 10.1711 4.70297 10.1643 7.03758C10.1572 9.48336 11.6678 10.6722 13.792 11.0876L13.7228 34.9027C13.7196 36.0013 14.5915 36.8962 15.6702 36.9016C16.7489 36.907 17.626 36.0208 17.6292 34.9223Z" fill="#BED0E0"/>
<path d="M18.0149 0.608398L18.0008 5.4784C17.9997 5.86371 17.9703 6.94137 17.9696 7.21793C17.9624 9.66371 15.9188 10.6936 13.7923 11.0876L13.7231 34.9028C13.7228 35.0223 13.8026 35.283 13.7824 35.3967C13.9955 36.2575 14.7592 36.8971 15.6705 36.9016C16.7492 36.907 17.6262 36.0208 17.6293 34.9223L17.6985 11.1071C19.825 10.7131 21.3424 9.53934 21.3496 7.09355C21.3563 4.75894 19.985 1.92238 18.0149 0.608398Z" fill="#AEC2D4"/>
<path d="M2.15265 22.4935L2.13257 34.7344C2.13093 35.9328 3.07757 36.9051 4.24257 36.9017C5.39835 36.8983 6.33327 35.9353 6.33484 34.7464L6.35491 22.4812L2.15265 22.4935Z" fill="#365DCA"/>
<path d="M4.01116 22.4881L3.99108 34.7464C3.99007 35.4913 3.62265 36.1474 3.06421 36.5345C3.40085 36.7675 3.8064 36.903 4.24257 36.9017C5.39835 36.8983 6.33319 35.9353 6.33483 34.7464L6.35491 22.4812L4.01116 22.4881Z" fill="#284EB8"/>
<path d="M7.12982 0.585938L7.13138 6.55742L5.65739 9.09102L5.66614 21.2937L2.81114 21.2862L2.80231 9.09727L1.327 6.5743L1.32544 0.602891L7.12982 0.585938Z" fill="#E8F4FF"/>
<path d="M7.13129 6.55742L7.12973 0.585938L4.22676 0.594375L4.22832 6.55742L2.77637 9.05305L2.80223 9.09727L2.81105 21.2862L5.66605 21.2937L5.6573 9.09102L7.13129 6.55742Z" fill="#DCEAF7"/>
<path d="M1.89672 22.4953L6.58063 22.4817C7.31828 22.4795 7.91617 21.8626 7.91594 21.1038V21.1036C7.9157 20.3448 7.31758 19.7314 6.57984 19.7335L1.89602 19.7212C1.15836 19.7234 0.560313 20.3662 0.560547 21.125V21.1253C0.560781 21.8842 1.15898 22.4975 1.89672 22.4953Z" fill="#66A8FF"/>
<path d="M6.5799 19.7335L1.89607 19.7212C1.86115 19.7213 1.82686 19.7242 1.79264 19.7271L4.23607 19.7335C4.97381 19.7313 5.57193 20.3447 5.57217 21.1035V21.1038C5.5724 21.8626 4.97451 22.4795 4.23686 22.4816L1.76514 22.4888C1.80842 22.493 1.85225 22.4953 1.8967 22.4953L6.58061 22.4816C7.31826 22.4794 7.91615 21.8625 7.91592 21.1038V21.1035C7.91576 20.3448 7.31756 19.7314 6.5799 19.7335Z" fill="#4D99FF"/>
<path d="M7.12987 0.585938L1.3255 0.602891L1.32104 2.67953L7.13026 2.70664L7.12987 0.585938Z" fill="#BED0E0"/>
<path d="M36.2211 33.706H10.8184L10.8171 30.6322C10.8142 23.6438 16.4984 17.9761 23.5132 17.9731C30.5279 17.9702 36.2169 23.6331 36.2199 30.6215L36.2211 33.706Z" fill="#FFB938"/>
<path d="M26.2259 33.7059L26.219 17.407C24.5232 16.5259 22.5021 16.5268 20.8071 17.4093L20.814 33.7059H26.2259Z" fill="#FFE645"/>
<path d="M26.219 17.407C24.892 16.7175 23.3658 16.5681 21.9526 16.9587C22.344 17.0668 22.7266 17.2161 23.094 17.407L23.1008 33.7059H26.2258L26.219 17.407Z" fill="#F5D60C"/>
<path d="M10.1108 30.6326L10.1121 33.706H15.9585L15.9529 20.5841C15.9528 20.1721 15.4737 19.9405 15.1509 20.198C12.0792 22.6491 10.109 26.4159 10.1108 30.6326Z" fill="#FFE645"/>
<path d="M15.953 20.5841C15.9528 20.1721 15.4737 19.9405 15.151 20.198C14.2822 20.8912 13.5017 21.6899 12.8289 22.5741L12.8335 33.706H15.9585L15.953 20.5841Z" fill="#F5D60C"/>
<path d="M31.0757 20.5777L31.0812 33.7059H36.9276L36.9263 30.6212C36.9245 26.4046 34.9512 22.6393 31.8774 20.191C31.5544 19.9336 31.0754 20.1657 31.0757 20.5777Z" fill="#FFE645"/>
<path d="M36.9263 30.6212C36.9245 26.4045 34.9512 22.6393 31.8774 20.1909C31.5544 19.9337 31.0755 20.1657 31.0757 20.5777L31.0765 22.565C32.7846 24.8055 33.8001 27.5972 33.8013 30.6212L33.8026 33.7059H36.9276L36.9263 30.6212Z" fill="#F5D60C"/>
<path d="M31.7855 38.2578L32.2455 38.0156C33.6828 37.2589 35.2836 36.8629 36.9093 36.8622C37.8053 36.8618 38.5279 36.123 38.4974 35.2236C38.4681 34.3634 37.7303 33.7057 36.8663 33.7061H10.1734C9.30939 33.7064 8.57213 34.376 8.54361 35.2362C8.51385 36.1356 9.23705 36.8739 10.1331 36.8735C11.7587 36.8728 13.3599 37.2674 14.7978 38.0229L15.2581 38.2647C16.696 39.0203 18.2972 39.4148 19.9228 39.4142L27.1217 39.4111C28.7473 39.4104 30.3482 39.0145 31.7855 38.2578Z" fill="#FFE645"/>
<path d="M36.8662 33.7061H33.7412C34.6052 33.7057 35.3431 34.3634 35.3722 35.2236C35.4027 36.123 34.6802 36.8618 33.7841 36.8622C32.1585 36.8629 30.5576 37.2588 29.1203 38.0156L28.6603 38.2578C27.2231 39.0146 25.6222 39.4104 23.9965 39.4111L19.8362 39.4129C19.865 39.4131 19.8938 39.4142 19.9226 39.4141L27.1215 39.4111C28.7471 39.4104 30.3481 39.0145 31.7853 38.2577L32.2453 38.0155C33.6826 37.2587 35.2834 36.8629 36.9091 36.8621C37.8052 36.8618 38.5277 36.1229 38.4972 35.2236C38.4681 34.3634 37.7302 33.7057 36.8662 33.7061Z" fill="#F5D60C"/>
<path d="M39.1598 10.7699L37.8229 9.61812C37.9672 8.83641 37.959 8.0243 37.7847 7.22992L39.069 6.12789C39.3104 5.92078 39.3708 5.57078 39.2129 5.29516L38.2705 3.64984C38.1126 3.37422 37.7812 3.25109 37.4817 3.35695L35.818 3.94508C35.2025 3.41953 34.4926 3.03078 33.7367 2.79219L33.4304 1.12555C33.3729 0.812656 33.1014 0.585859 32.7842 0.585938L30.8911 0.586172C30.5739 0.586172 30.3012 0.813047 30.2421 1.12602L30.2007 1.34531C32.877 2.61422 34.728 5.34039 34.728 8.49914C34.728 11.6019 32.942 14.2871 30.3422 15.584L30.41 15.9525C30.4675 16.2654 30.739 16.4922 31.0562 16.4921L32.9494 16.4919C33.2665 16.4918 33.5393 16.265 33.5983 15.952L33.9266 14.2128C34.2612 14.0924 34.5898 13.9407 34.9087 13.7562C35.2968 13.5316 35.6503 13.2698 35.968 12.9784L37.5587 13.5413C37.8576 13.6471 38.1897 13.5239 38.349 13.2482L39.2996 11.6027C39.459 11.327 39.4002 10.977 39.1598 10.7699Z" fill="#6DD45F"/>
<path d="M32.8041 5.26043C31.9309 5.02535 31.018 5.1459 30.2337 5.5998C28.6171 6.53551 28.057 8.61465 28.9849 10.2347C29.4349 11.0203 30.1634 11.5824 31.0362 11.8174C31.328 11.896 31.6241 11.9348 31.9184 11.9348C32.5051 11.9348 33.0845 11.7804 33.6068 11.4781C35.2234 10.5424 35.7835 8.46324 34.8556 6.84316C34.4055 6.05746 33.6769 5.49543 32.8041 5.26043ZM33.0197 10.4638C32.507 10.7604 31.9109 10.8392 31.3408 10.6858C30.7712 10.5325 30.2956 10.1654 30.0016 9.6523C29.3934 8.59035 29.7608 7.22746 30.8206 6.61402C31.162 6.41644 31.5406 6.31551 31.9239 6.31551C32.1159 6.31551 32.3092 6.34082 32.4994 6.39199C33.069 6.54535 33.5446 6.91238 33.8386 7.42551C34.4469 8.48754 34.0795 9.85043 33.0197 10.4638Z" fill="#060606"/>
<path d="M39.5423 10.3262L38.4527 9.38734C38.5385 8.74125 38.5289 8.09336 38.4239 7.45352L39.4506 6.57258C39.9048 6.18281 40.0188 5.52313 39.7215 5.00398L38.7789 3.35859C38.4803 2.83734 37.8525 2.6043 37.2864 2.80453L35.9318 3.28336C35.4199 2.89031 34.857 2.57773 34.2512 2.35023L34.0067 1.01977C33.8983 0.42875 33.3842 0 32.7845 0C32.7844 0 32.7842 0 32.7842 0L30.891 0.000234375C30.2927 0.000390625 29.7776 0.428203 29.6664 1.01734L29.3984 2.43734C28.8085 2.68469 28.2412 3.02664 27.7464 3.43336L26.4774 2.9843C25.9127 2.78461 25.2846 3.01664 24.9842 3.53664L24.0335 5.18219C23.7336 5.70133 23.8449 6.36148 24.2982 6.75195L25.3878 7.69078C25.3021 8.3368 25.3117 8.98469 25.4167 9.62461L24.39 10.5055C23.9358 10.8953 23.8218 11.555 24.1191 12.0741L25.0615 13.7195C25.3601 14.2407 25.9876 14.4739 26.5541 14.2736L27.9087 13.7948C28.4206 14.1878 28.9836 14.5004 29.5893 14.7279L29.8338 16.0585C29.9424 16.6494 30.4566 17.0781 31.0564 17.0781L32.9495 17.0779C33.5478 17.0777 34.0628 16.6499 34.1741 16.0607L34.4421 14.6407C35.0317 14.3933 35.5994 14.0514 36.0941 13.6447L37.3633 14.0938C37.928 14.2936 38.556 14.0612 38.8563 13.5414L39.807 11.8958C40.1068 11.3767 39.9954 10.7166 39.5423 10.3262ZM38.7923 11.3096L37.8416 12.9552C37.8236 12.9864 37.7868 13.0005 37.7542 12.9891L36.1635 12.4262C35.9592 12.3538 35.7317 12.4002 35.5721 12.5466C35.0389 13.0354 34.4085 13.4166 33.7282 13.6616C33.5328 13.7318 33.3893 13.9002 33.3508 14.1042L33.0226 15.8434C33.0157 15.8797 32.9849 15.906 32.9493 15.906L31.0564 15.9062C31.0221 15.9062 30.9928 15.8812 30.9864 15.8466L30.6802 14.18C30.641 13.9667 30.4871 13.7924 30.2803 13.7271C29.586 13.508 28.9543 13.1581 28.403 12.6873C28.2206 12.5481 28.0287 12.5125 27.8272 12.5805L26.1635 13.1686C26.1309 13.1802 26.0958 13.1672 26.0785 13.137L25.136 11.4916C25.1178 11.4598 25.1249 11.419 25.1531 11.3948L26.4374 10.2927C26.6011 10.1523 26.6743 9.9332 26.6281 9.7225C26.4723 9.01219 26.4607 8.28672 26.5937 7.56617C26.6315 7.36133 26.5578 7.1518 26.4 7.01594L25.0631 5.86414C25.036 5.8407 25.0297 5.80047 25.0483 5.76836L25.9989 4.12281C26.0169 4.09172 26.0537 4.07758 26.0864 4.08891L27.6771 4.6518C27.8813 4.72398 28.1089 4.67766 28.2686 4.53125C28.8015 4.04258 29.432 3.66102 30.1122 3.41641C30.3076 3.34617 30.4512 3.17773 30.4897 2.97375L30.818 1.23445C30.8248 1.1982 30.8556 1.17188 30.8913 1.17188H32.7844C32.8185 1.17188 32.8478 1.19687 32.8542 1.23148L33.1604 2.89813C33.1996 3.11141 33.3535 3.2857 33.5603 3.35102C34.2548 3.57023 34.8864 3.92 35.4376 4.39078C35.5967 4.52648 35.816 4.56727 36.0134 4.49758L37.6771 3.90945C37.7101 3.89789 37.7448 3.91102 37.7621 3.94117L38.7046 5.58648C38.7228 5.61836 38.7157 5.65914 38.6874 5.68336L37.4032 6.78539C37.2395 6.92586 37.1663 7.14492 37.2124 7.35563C37.3682 8.06578 37.3799 8.79125 37.2468 9.51195C37.209 9.7168 37.2828 9.92633 37.4405 10.0622L38.7774 11.214C38.8045 11.2373 38.8107 11.2777 38.7923 11.3096Z" fill="#060606"/>
<path d="M8.5019 21.1035C8.50159 20.0628 7.63791 19.1429 6.58143 19.1477L6.25159 19.1468L6.24916 16.2162C6.24831 15.3263 4.86034 15.5362 5.07745 16.3659L5.07971 19.1437C4.5187 19.1423 3.9576 19.1408 3.39659 19.1393L3.38823 9.0968C3.38815 8.99297 3.36049 8.89101 3.30815 8.80148L1.91284 6.41547L1.91206 3.2682L6.54456 3.28977L6.54534 6.3993L5.15088 8.79633C5.0987 8.88594 5.07127 8.98773 5.07135 9.09141L5.07456 12.9545C4.87846 13.7699 6.24729 13.9141 6.24651 13.0924L6.24338 9.24883L7.63776 6.85195C7.68987 6.76242 7.71729 6.6607 7.71729 6.55719L7.71573 0.585781C7.71573 0.283594 7.43666 0 7.12807 0L1.3237 0.0169531C1.00596 0.0178125 0.740024 0.283672 0.739478 0.601562L0.74104 6.57445C0.74104 6.67836 0.768696 6.78039 0.821118 6.87008L2.21651 9.25625L2.22471 19.1362L1.8944 19.1353C-0.386929 19.1419 -0.677632 22.6612 1.56581 23.0525L1.54674 34.7334C1.54167 38.3113 6.91596 38.2841 6.9208 34.7472L6.93995 23.0319C7.82831 22.858 8.50221 22.0588 8.5019 21.1035ZM1.91174 2.09633L1.91151 1.18711L6.54393 1.17352L6.54416 2.11789L1.91174 2.09633ZM4.24088 36.3157C3.40596 36.3157 2.71745 35.5533 2.71862 34.7353L2.73768 23.0789L5.76799 23.0701L5.74893 34.7455C5.74776 35.6088 5.0712 36.3133 4.24088 36.3157ZM6.57893 21.8958L1.89502 21.9095C0.947446 21.9095 0.955649 20.3099 1.89456 20.3073L6.58159 20.3195C7.52182 20.3195 7.52854 21.893 6.57893 21.8958Z" fill="#060606"/>
<path d="M37.5132 33.2118L37.512 30.6211C37.5103 26.3677 35.5895 22.3991 32.2423 19.7329C31.9081 19.4666 31.3441 19.4396 30.9821 19.6728C29.7034 18.8046 28.3024 18.1748 26.8048 17.796C26.8638 17.4816 26.8002 17.049 26.4888 16.8872C24.6248 15.9188 22.3994 15.9196 20.5363 16.8897C20.225 17.0518 20.1617 17.4849 20.2211 17.7993C19.5339 17.9736 18.867 18.2007 18.223 18.4796L18.2804 11.5807C20.6677 10.9886 21.9286 9.44613 21.9354 7.09527C21.943 4.49136 20.3973 1.49301 18.34 0.120975C17.8427 -0.0803533 17.539 0.0815216 17.429 0.606756L17.4148 5.47676C17.3934 5.73871 17.2541 5.88293 16.9971 5.90949L14.5259 5.89715C14.295 5.89597 14.1077 5.69894 14.1084 5.45777L14.1226 0.587693C14.0161 0.0627717 13.7139 -0.101213 13.2159 0.0957404C11.1498 1.44777 9.5861 4.43144 9.57852 7.03597C9.57172 9.38472 10.8222 10.9388 13.2031 11.5549L13.1384 21.2842C10.8195 23.8324 9.5232 27.1366 9.52469 30.6328L9.52578 33.217C7.21531 33.9224 7.66211 37.4594 10.1322 37.4594C11.8605 37.4594 13.4766 37.9732 14.9853 38.7834C16.5002 39.5794 18.206 40.0001 19.9184 40.0001H19.9229L27.1218 39.9971C28.8359 39.9963 30.5429 39.5742 32.0584 38.7763C33.5656 37.9568 35.1809 37.4489 36.9095 37.4482C39.3459 37.4472 39.8621 33.8979 37.5132 33.2118ZM30.4897 20.7563L30.4926 27.6279C30.4927 27.9515 30.755 28.2136 31.0785 28.2136H31.0788C31.4024 28.2135 31.6646 27.9511 31.6645 27.6275L31.6616 20.7703C34.6359 23.2112 36.3386 26.7907 36.3402 30.6217L36.3414 33.1202H31.6669L31.6658 30.742C31.6656 30.4184 31.4034 30.1563 31.0798 30.1563C31.0798 30.1563 31.0797 30.1563 31.0796 30.1563C30.7559 30.1564 30.4938 30.4189 30.4939 30.7425L30.4949 33.1203H26.8113L26.8054 19.0086C28.1262 19.3771 29.3616 19.9632 30.4897 20.7563ZM25.633 17.7762L25.6395 33.1201H21.3995L21.393 17.7779C22.7426 17.1856 24.2829 17.185 25.633 17.7762ZM20.2276 33.1202H16.5441L16.5388 20.7621C17.6541 19.9767 18.9083 19.3796 20.2216 19.0118L20.2276 33.1202ZM10.7505 7.03941C10.7557 5.23605 11.6673 3.15808 12.9471 1.83824L12.9366 5.45441C12.9341 6.34043 13.6445 7.06472 14.5202 7.0691L16.9914 7.08144C17.8456 7.08144 18.5843 6.33238 18.5867 5.48019L18.5973 1.86832C19.8695 3.20137 20.7689 5.28847 20.7636 7.09199C20.758 9.01168 19.7205 10.1367 17.5916 10.5311C17.3157 10.5822 17.1148 10.8218 17.1124 11.1024L17.0462 19.06C16.7048 19.2504 16.3713 19.4574 16.0454 19.6791C15.6834 19.4462 15.1192 19.4736 14.7853 19.7403C14.6259 19.8675 14.4709 19.9985 14.318 20.1315L14.3781 11.0917C14.3799 10.81 14.1812 10.5668 13.9046 10.5128C11.7766 10.0965 10.7448 8.96043 10.7505 7.03941ZM15.3669 20.7771L15.3721 33.1201H10.6976L10.6965 30.6324C10.695 26.8014 12.3946 23.2205 15.3669 20.7771ZM37.6325 35.9696C37.4416 36.1672 37.1845 36.2761 36.9089 36.2763C34.9929 36.2771 33.1875 36.8397 31.5123 37.7393C30.1645 38.4491 28.6461 38.8246 27.1213 38.8252L19.9224 38.8282C19.9209 38.8282 19.9198 38.8282 19.9184 38.8282C18.3952 38.8282 16.8778 38.454 15.5304 37.746C13.9073 36.878 12.0062 36.1834 10.1322 36.2875C8.8193 36.2875 8.84484 34.2925 10.1731 34.292H15.9583H20.8137H26.2255H31.0809H36.8663C37.6923 34.3413 38.2776 35.3019 37.6325 35.9696Z" fill="#060606"/>
</g>
<defs>
<clipPath id="clip0_34_3294">
<rect width="40" height="40" fill="white"/>
</clipPath>
</defs>
</svg>
