<svg width="40" height="40" viewBox="0 0 40 40" fill="none" xmlns="http://www.w3.org/2000/svg">
<path fill-rule="evenodd" clip-rule="evenodd" d="M26.4323 24.9794C19.1213 24.9794 13.2162 19.0508 13.2162 11.7632C13.2162 19.0508 7.28764 24.9794 0 24.9794C7.28764 24.9794 13.2162 30.8844 13.2162 38.1721C13.2162 30.8844 19.1213 24.9794 26.4323 24.9794Z" fill="#FFD93B"/>
<path fill-rule="evenodd" clip-rule="evenodd" d="M39.9999 31.7984C35.9928 31.7984 32.7591 28.5412 32.7591 24.5576C32.7591 28.5412 29.5019 31.7984 25.5183 31.7984C29.5019 31.7984 32.7591 35.0321 32.7591 39.0392C32.7591 35.0321 35.9928 31.7984 39.9999 31.7984Z" fill="#FFB030"/>
<path fill-rule="evenodd" clip-rule="evenodd" d="M35.8288 9.77147C30.9548 9.77147 27.0181 5.83474 27.0181 0.960693C27.0181 5.83474 23.0813 9.77147 18.2073 9.77147C23.0813 9.77147 27.0181 13.7082 27.0181 18.5823C27.0181 13.7082 30.9548 9.77147 35.8288 9.77147Z" fill="#FFB030"/>
</svg>
