<svg width="53" height="61" viewBox="0 0 53 61" fill="none" xmlns="http://www.w3.org/2000/svg">
<path d="M4.01576 3.37593C15.7958 8.50173 28.1653 12.1943 40.7934 14.44C42.4388 14.7069 44.0841 14.9738 45.6634 15.238C46.65 15.4113 47.8433 15.3945 48.6151 15.9565C48.7419 16.0943 48.8742 16.0997 48.7998 16.2954C48.7282 16.425 48.2515 16.7365 48.0449 16.9267C46.8242 17.605 45.3526 17.9416 44.0078 18.4159C37.758 20.5423 31.4474 22.5337 25.1369 24.525C18.8291 26.4502 12.5131 28.5739 7.24202 32.6622C6.76258 33.0399 6.60291 33.6958 6.77943 34.2332C7.38647 37.1736 10.5394 37.8342 13.0336 38.4013C16.3795 39.2025 19.7281 39.9374 23.074 40.7386C25.8962 41.3855 28.9224 41.9084 31.4416 43.4703C33.3132 44.6742 34.6283 46.5176 35.2709 48.5981C35.9687 50.946 35.8592 53.5917 34.7078 55.7967C34.278 56.574 34.4354 57.5744 35.2099 58.0702C35.921 58.4972 37.0537 58.3454 37.4834 57.5681C39.9956 52.9017 39.3162 46.9105 35.8372 42.9236C33.8772 40.6559 31.1457 39.4165 28.3318 38.5711C25.0575 37.6404 21.64 36.9688 18.3603 36.1705C16.4586 35.6942 14.5541 35.284 12.6524 34.8077C12.0626 34.6508 11.4067 34.4911 10.8857 34.2707C10.3648 34.0504 10.1085 33.841 10.0588 33.4414C9.90456 33.9651 9.75036 34.4888 9.59616 35.0124C14.3189 31.3652 20.1609 29.4869 25.7991 27.7327C32.4431 25.6889 39.0237 23.5763 45.6098 21.3313C48.0954 20.5066 52.1767 19.5493 52.2475 16.2395C52.3156 12.9957 48.6996 12.3159 46.2633 11.95C39.613 10.9458 33.0453 9.5474 26.6264 7.75767C19.2896 5.73116 12.1732 3.18372 5.20828 0.178771C4.36212 -0.187553 3.40872 0.435525 3.11128 1.21828C2.60719 2.19124 3.16961 3.00961 4.01576 3.37593Z" fill="white"/>
<path d="M23.8452 49.3175C25.813 49.7965 27.6956 50.7358 29.1621 52.1217C29.9284 52.816 30.5597 53.5709 31.1193 54.4554C31.679 55.34 32.0375 56.2824 32.531 57.1642C33.8351 59.2721 36.2495 60.1672 38.5559 58.8713C40.7961 57.5727 42.3554 55.1196 43.9588 53.1983C45.9838 50.6982 48.0722 48.2669 50.0971 45.7668C50.6564 45.0612 50.3061 43.9203 49.595 43.4933C48.757 42.9285 47.8807 43.2898 47.3215 43.9954C45.1587 46.6224 42.9988 49.1832 40.9022 51.8128C39.993 52.9678 39.0811 54.1889 38.0451 55.2061C37.4941 55.7133 36.5931 56.6698 35.8241 56.0417C35.055 55.4135 34.7157 54.0081 34.2194 53.1925C33.5357 52.1041 32.7858 51.0129 31.8293 50.112C29.919 48.2439 27.5265 46.8197 24.9027 46.181C24.051 45.947 23.1059 46.3716 22.8057 47.2205C22.5055 48.0694 22.9936 49.0835 23.8452 49.3175Z" fill="white"/>
</svg>
