<svg width="100" height="100" viewBox="0 0 100 100" fill="none" xmlns="http://www.w3.org/2000/svg">
<g clip-path="url(#clip0_34_3135)">
<path d="M93.9706 86.8905C93.6914 86.7295 93.4121 86.5784 93.1329 86.4342C102.648 72.683 102.076 34.1622 92.6507 20.0814C93.0902 19.87 93.5312 19.6374 93.9706 19.3841C98.7008 16.6588 99.7453 13.5666 98.4163 11.2603C97.0872 8.95391 93.889 8.30694 89.158 11.0329C87.4971 11.9896 86.0811 13.1142 84.9977 14.2693C74.6782 10.4851 55.5238 10.4851 45.2043 14.2693C44.1209 13.1142 42.7049 11.9904 41.044 11.0329C36.3137 8.30694 33.1147 8.95391 31.7857 11.2603C30.4567 13.5666 31.5011 16.6588 36.2321 19.3841C36.6708 19.6374 37.1118 19.87 37.5512 20.0814C28.1266 34.1622 27.5537 72.683 37.0691 86.4342C36.7898 86.5784 36.5106 86.7295 36.2321 86.8905C31.5011 89.6164 30.4567 92.7079 31.7857 95.0142C33.1147 97.3206 36.3137 97.9676 41.044 95.2416C42.6454 94.3192 44.0202 93.2404 45.0868 92.1288C55.6421 95.7474 74.5599 95.7474 85.1144 92.1288C86.1818 93.2404 87.5566 94.3192 89.158 95.2416C93.8882 97.9676 97.0872 97.3206 98.4163 95.0142C99.7453 92.7079 98.7008 89.6164 93.9706 86.8905Z" fill="#EAB875"/>
<path d="M93.9705 86.8904C93.6913 86.7294 93.412 86.5783 93.1328 86.4341C102.648 72.6829 102.076 34.1621 92.6506 20.0813C93.0901 19.8699 93.5311 19.6373 93.9705 19.384C98.7007 16.6587 99.7452 13.5665 98.4162 11.2602C97.3481 9.407 95.0714 8.62727 91.7641 9.80601C92.376 10.1524 92.8627 10.6468 93.216 11.2602C94.545 13.5665 93.5006 16.6587 88.7703 19.384C88.3309 19.6373 87.8899 19.8699 87.4504 20.0813C96.8758 34.1621 97.448 72.6829 87.9326 86.4341C88.2119 86.5783 88.4911 86.7294 88.7703 86.8904C93.5006 89.6164 94.545 92.7078 93.216 95.0142C92.8627 95.6276 92.376 96.1219 91.7641 96.4683C95.0714 97.6478 97.3481 96.8673 98.4162 95.0142C99.7452 92.7078 98.7007 89.6164 93.9705 86.8904Z" fill="#C68D4E"/>
<path d="M20.4825 17.45L35.2477 58.0154L27.0286 61.0069L12.2642 20.4414C13.7183 20.4704 15.2022 20.2362 16.6511 19.709C18.0999 19.1818 19.3877 18.4074 20.4825 17.45Z" fill="#21B7A6"/>
<path d="M35.2479 58.0154L20.4828 17.45C19.4162 18.3823 18.1665 19.1391 16.7634 19.6655L31.2516 59.4704L27.0288 61.0069L35.2479 58.0154Z" fill="#16998A"/>
<path d="M12.5062 21.9094C12.4162 21.9094 12.3261 21.9079 12.2353 21.9063C7.59591 21.8125 3.23571 19.2856 0.856862 15.3122C0.332723 14.4379 0.228963 13.3858 0.569234 12.4245C0.911031 11.4625 1.65719 10.711 2.61544 10.3615L21.3944 3.52635C22.3534 3.17769 23.4086 3.27458 24.2883 3.79186C25.1672 4.30837 25.7638 5.18193 25.9248 6.18825C26.6564 10.7613 24.9406 15.4999 21.4471 18.5532C20.1852 19.6564 18.7402 20.5079 17.1517 21.0862C15.6503 21.6324 14.0885 21.9094 12.5062 21.9094ZM22.3969 6.2798L3.61794 13.1142C3.43331 13.1814 3.35854 13.3248 3.33031 13.4041C3.30208 13.4835 3.27004 13.6406 3.36999 13.8077C5.23537 16.9228 8.65487 18.9034 12.2941 18.9774C13.6056 19.0026 14.9033 18.7867 16.1507 18.3327C17.3974 17.8788 18.5311 17.2112 19.5191 16.3476C22.2596 13.9519 23.6054 10.2364 23.0325 6.65059C23.0012 6.45909 22.8753 6.35915 22.8036 6.31642C22.7303 6.27446 22.5808 6.21267 22.3969 6.2798Z" fill="white"/>
<path d="M46.9307 38.3377V47.1718C46.9307 50.177 49.3667 52.6138 52.3719 52.6138H77.829C80.8342 52.6138 83.271 50.177 83.271 47.1718V38.3377C83.271 35.3325 80.8342 32.8956 77.829 32.8956H52.3719C49.3667 32.8956 46.9307 35.3325 46.9307 38.3377Z" fill="#F0F2DC"/>
<path d="M65.9592 86.7111C65.9592 79.0665 60.5141 72.6974 53.2906 71.2646C52.8954 61.1244 44.4931 53.0395 34.2278 53.1639C24.3332 53.2837 16.114 61.1938 15.6349 71.0777C15.5396 73.0484 15.7486 74.9565 16.217 76.7601C11.8439 77.9571 8.62732 81.958 8.62656 86.7103H5.76325C2.58026 86.7111 0 89.2914 0 92.4744V96.3623C0 96.7308 0.298309 97.0291 0.666046 97.0291H74.9657C75.3334 97.0291 75.6317 96.7308 75.6317 96.3623V92.4744C75.6317 89.2914 73.0515 86.7111 69.8685 86.7111H65.9592Z" fill="#AABFD5"/>
<path d="M69.8683 86.7111H65.959C65.959 79.0665 60.5139 72.6974 53.2904 71.2646C52.8952 61.1244 44.4929 53.0395 34.2276 53.1639C33.4524 53.1738 32.6895 53.2364 31.938 53.3378C40.8842 54.5639 47.8277 62.0689 48.1871 71.2646C55.4098 72.6974 60.8549 79.0665 60.8549 86.7111H64.7642C67.9472 86.7111 70.5275 89.2914 70.5275 92.4744V96.3623C70.5275 96.7308 70.2292 97.0291 69.8614 97.0291H74.9655C75.3332 97.0291 75.6315 96.7308 75.6315 96.3623V92.4744C75.6315 89.2914 73.0513 86.7111 69.8683 86.7111Z" fill="#7D8EB0"/>
<path d="M53.8611 85.6636C53.0524 85.6636 52.3962 85.0083 52.3962 84.1988C52.3962 82.0877 50.6789 80.3704 48.5678 80.3704C47.8003 80.3704 47.0602 80.5962 46.4285 81.0234C45.7579 81.4766 44.8469 81.2996 44.3945 80.6298C43.9413 79.9591 44.1176 79.0482 44.7874 78.5958C45.9059 77.8397 47.2128 77.4407 48.5678 77.4407C52.294 77.4407 55.3259 80.4718 55.3259 84.1988C55.3259 85.0083 54.6698 85.6636 53.8611 85.6636Z" fill="#7D8EB0"/>
<path d="M20.5176 86.6379C20.2094 86.6379 19.8989 86.5417 19.6342 86.3411C18.9895 85.8521 18.8628 84.9335 19.3511 84.2888C20.5688 82.6813 22.4235 81.7596 24.4376 81.7596C25.9963 81.7596 27.4963 82.328 28.6628 83.3595C29.2686 83.8951 29.3258 84.8213 28.7894 85.4271C28.2531 86.0336 27.3276 86.0901 26.7219 85.5537C26.0917 84.996 25.2799 84.6893 24.4376 84.6893C23.3482 84.6893 22.3456 85.1883 21.6865 86.058C21.3981 86.438 20.9601 86.6379 20.5176 86.6379Z" fill="#7D8EB0"/>
<path d="M29.2449 68.898C29.042 68.898 28.836 68.8561 28.6399 68.7668C27.9029 68.4319 27.5771 67.5637 27.9113 66.8274C28.2477 66.0866 28.7238 65.4297 29.3258 64.8751C31.7863 62.6084 35.6322 62.7663 37.8997 65.2268C38.4475 65.8219 38.4101 66.7481 37.815 67.2966C37.2199 67.8444 36.2929 67.8063 35.7452 67.2119C34.5725 65.9394 32.5828 65.857 31.3102 67.0304C30.9989 67.3172 30.7525 67.6567 30.5793 68.0382C30.3344 68.5784 29.8019 68.898 29.2449 68.898Z" fill="#7D8EB0"/>
</g>
<defs>
<clipPath id="clip0_34_3135">
<rect width="100" height="100" fill="white"/>
</clipPath>
</defs>
</svg>
